<svg width="173" height="36" viewBox="0 0 173 36" fill="none" xmlns="http://www.w3.org/2000/svg">
<g clip-path="url(#clip0_12_178)">
<path d="M38.8348 1.44546V34.5508C38.8348 35.0003 38.4694 35.3657 38.02 35.3657H30.6169C30.1675 35.3657 29.8021 35.0003 29.8021 34.5508V22.2222H25.304V34.5508C25.304 35.0003 24.9386 35.3657 24.4891 35.3657H19.1981C18.7487 35.3657 18.3833 35.0003 18.3833 34.5508V29.4206H1.19843C0.635715 29.4206 0.182617 28.9638 0.182617 28.4048V18.2539C0.182617 16.9714 0.653985 15.7363 1.50537 14.779L1.56384 14.7132L7.10698 8.49771L13.538 1.28468C13.9108 0.868126 14.4406 0.630615 14.9997 0.630615H23.4002L18.3723 6.26876L10.8414 14.7132L7.10698 18.9007V22.2222H18.3723V15.528C18.3723 15.0786 18.7377 14.7132 19.1872 14.7132H29.7948V1.44546C29.7948 0.996017 30.1602 0.630615 30.6096 0.630615H38.0126C38.4621 0.630615 38.8275 0.996017 38.8275 1.44546H38.8348Z" fill="#121A33" stroke="#231F20" stroke-miterlimit="10"/>
<path d="M55.5226 24.2173H45.7847V21.1552L54.8832 8.13232H59.4178V20.8227H61.866V24.2173H59.4178V28.1673H55.5226V24.2173ZM55.7748 20.8227V12.3089L50.0708 20.8227H55.7748Z" fill="#D6C69D"/>
<path d="M70.8001 28.4195C66.3495 28.4195 62.9805 25.3026 62.9805 20.461C62.9805 15.6194 66.4591 12.5026 70.9133 12.5026C75.3676 12.5026 78.8462 15.5902 78.8462 20.461C78.8462 25.3318 75.2835 28.4195 70.8037 28.4195H70.8001ZM70.8001 25.0249C72.8609 25.0249 74.8341 23.5231 74.8341 20.461C74.8341 17.3989 72.9157 15.8971 70.8549 15.8971C68.794 15.8971 66.9305 17.3734 66.9305 20.461C66.9305 23.5487 68.71 25.0249 70.8001 25.0249Z" fill="#D6C69D"/>
<path d="M84.7695 28.1709H80.8743V12.7546H84.7695V15.148C85.7451 13.5622 87.3565 12.5317 89.5014 12.5317V16.6206H88.471C86.1616 16.6206 84.7695 17.5122 84.7695 20.4902V28.1709Z" fill="#D6C69D"/>
<path d="M98.0151 28.4195C93.5353 28.4195 90.2795 25.3026 90.2795 20.461C90.2795 15.6194 93.4512 12.5026 98.0151 12.5026C102.579 12.5026 105.612 15.5354 105.612 20.1285C105.612 20.6291 105.583 21.1297 105.502 21.6303H94.2332C94.4269 23.9104 95.9871 25.193 97.9347 25.193C99.6046 25.193 100.522 24.3562 101.022 23.3294H105.224C104.391 26.1686 101.83 28.4231 98.0187 28.4231L98.0151 28.4195ZM94.2588 19.014H101.578C101.523 16.9824 99.9079 15.7035 97.9055 15.7035C96.0419 15.7035 94.5657 16.8983 94.2588 19.014Z" fill="#D6C69D"/>
<path d="M107.618 7.5769H111.513V14.673C112.514 13.3649 114.239 12.5317 116.3 12.5317C119.778 12.5317 122.311 14.8703 122.311 19.1272V28.1709H118.416V19.6571C118.416 17.1797 117.053 15.8459 114.992 15.8459C112.931 15.8459 111.513 17.1833 111.513 19.6571V28.1709H107.618V7.5769Z" fill="#D6C69D"/>
<path d="M131.219 12.5026C133.697 12.5026 135.392 13.6718 136.313 14.9507V12.751H140.237V28.1673H136.313V25.9128C135.396 27.2502 133.642 28.4158 131.194 28.4158C127.299 28.4158 124.182 25.2149 124.182 20.4025C124.182 15.5902 127.299 12.4989 131.223 12.4989L131.219 12.5026ZM132.22 15.9264C130.134 15.9264 128.157 17.483 128.157 20.4062C128.157 23.3294 130.134 24.9993 132.22 24.9993C134.307 24.9993 136.313 23.3842 136.313 20.4647C136.313 17.5451 134.365 15.93 132.22 15.93V15.9264Z" fill="#D6C69D"/>
<path d="M157.766 28.1709H153.841V26.2233C152.866 27.5315 151.17 28.3646 149.248 28.3646C145.66 28.3646 143.069 26.026 143.069 21.7983V12.7546H146.964V21.2429C146.964 23.7203 148.327 25.0541 150.388 25.0541C152.449 25.0541 153.837 23.7167 153.837 21.2429V12.7546H157.762V28.1709H157.766Z" fill="#D6C69D"/>
<path d="M166.674 28.4195C162.805 28.4195 160.108 26.1649 159.94 23.3002H163.864C164.003 24.4695 165.088 25.3611 166.649 25.3611C168.209 25.3611 169.013 24.6668 169.013 23.7752C169.013 21.0201 160.302 22.774 160.302 17.1249C160.302 14.5634 162.585 12.5062 166.397 12.5062C170.208 12.5062 172.378 14.5379 172.601 17.5999H168.87C168.761 16.4051 167.814 15.5975 166.283 15.5975C164.836 15.5975 164.084 16.1822 164.084 17.0737C164.084 19.8837 172.627 18.1298 172.736 23.7789C172.736 26.4244 170.427 28.4268 166.671 28.4268L166.674 28.4195Z" fill="#D6C69D"/>
</g>
<defs>
<clipPath id="clip0_12_178">
<rect width="172.74" height="35.1041" fill="white" transform="translate(0 0.447876)"/>
</clipPath>
</defs>
</svg>
