<svg width="32" height="32" viewBox="0 0 32 32" fill="none" xmlns="http://www.w3.org/2000/svg">
<path fill-rule="evenodd" clip-rule="evenodd" d="M15.9948 5.33157C14.5114 5.33113 13.0663 5.80206 11.868 6.67639C10.6697 7.55071 9.7803 8.78319 9.32807 10.1959C8.87585 11.6087 8.88425 13.1285 9.35206 14.5362C9.81987 15.9438 10.7229 17.1664 11.9307 18.0274C12.5372 18.4606 12.9957 19.1764 12.9957 20.0268V22.326C12.9957 22.51 13.145 22.6593 13.329 22.6593H18.6606C18.7489 22.6593 18.8337 22.6242 18.8962 22.5617C18.9587 22.4992 18.9938 22.4144 18.9938 22.326V20.0255C18.9938 19.1764 19.4523 18.4606 20.0588 18.0261C21.2661 17.1649 22.1685 15.9424 22.636 14.535C23.1034 13.1276 23.1117 11.6081 22.6595 10.1957C22.2073 8.78334 21.3182 7.55113 20.1203 6.67688C18.9224 5.80262 17.4777 5.33153 15.9948 5.33157ZM6.99768 12.3293C6.99766 10.7866 7.39432 9.26979 8.14956 7.92459C8.90481 6.57939 9.99326 5.45099 11.3104 4.64777C12.6275 3.84455 14.129 3.39349 15.6707 3.33793C17.2124 3.28237 18.7425 3.62416 20.114 4.33049C21.4856 5.03681 22.6524 6.08393 23.5025 7.37128C24.3526 8.65862 24.8575 10.1429 24.9685 11.6816C25.0795 13.2203 24.793 14.7618 24.1365 16.1578C23.4801 17.5539 22.4756 18.7577 21.2197 19.6536C21.0518 19.7735 20.9931 19.9228 20.9931 20.0268V22.326C20.9931 22.9447 20.7474 23.538 20.3099 23.9754C19.8725 24.4129 19.2792 24.6586 18.6606 24.6586H13.329C12.7103 24.6586 12.117 24.4129 11.6796 23.9754C11.2421 23.538 10.9964 22.9447 10.9964 22.326V20.0255C10.9964 19.9228 10.9377 19.7735 10.7698 19.6536C9.60239 18.8221 8.65086 17.7235 7.99466 16.4493C7.33845 15.1752 6.99661 13.7625 6.99768 12.3293ZM10.9964 27.6576C10.9964 27.3925 11.1017 27.1382 11.2892 26.9508C11.4767 26.7633 11.7309 26.658 11.9961 26.658H19.9935C20.2586 26.658 20.5129 26.7633 20.7003 26.9508C20.8878 27.1382 20.9931 27.3925 20.9931 27.6576C20.9931 27.9228 20.8878 28.177 20.7003 28.3645C20.5129 28.552 20.2586 28.6573 19.9935 28.6573H11.9961C11.7309 28.6573 11.4767 28.552 11.2892 28.3645C11.1017 28.177 10.9964 27.9228 10.9964 27.6576Z" fill="black"/>
</svg>
